HIERARCHY
ROOT SpineBase
{
  OFFSET 0.000000 0.000000 0.000000
  CHANNELS 6 Xposition Yposition Zposition Zrotation Xrotation Yrotation
  JOINT SpineMid
  {
    OFFSET 0.000000 26.608716 0.000000
    CHANNELS 3 Zrotation Xrotation Yrotation
    JOINT SpineShoulder
    {
      OFFSET 0.202761 19.884478 -0.678937
      CHANNELS 3 Zrotation Xrotation Yrotation
      JOINT Neck
      {
        OFFSET 0.123768 6.631757 -0.524667
        CHANNELS 3 Zrotation Xrotation Yrotation
        JOINT Head
        {
          OFFSET 3.280796 12.507708 -1.400966
          CHANNELS 3 Zrotation Xrotation Yrotation
          End Site
          {
            OFFSET 0 0 0
          }
        }
      }
      JOINT ShoulderLeft
      {
        OFFSET -13.476736 0.303857 -8.111038
        CHANNELS 3 Zrotation Xrotation Yrotation
        JOINT ElbowLeft
        {
          OFFSET -4.410911 -19.128202 -6.561792
          CHANNELS 3 Zrotation Xrotation Yrotation
          JOINT WristLeft
          {
            OFFSET 8.212372 -12.943813 -16.639235
            CHANNELS 3 Zrotation Xrotation Yrotation
            JOINT HandLeft
            {
              OFFSET 3.997006 -3.242631 -6.631407
              CHANNELS 3 Zrotation Xrotation Yrotation
              JOINT HandTipLeft
              {
                OFFSET 2.913170 -4.007599 -4.207420
                CHANNELS 3 Zrotation Xrotation Yrotation
                End Site
                {
                  OFFSET 0 0 0
                }
              }
              JOINT ThumbLeft
              {
                OFFSET 2.577819 0.444024 -0.004423
                CHANNELS 3 Zrotation Xrotation Yrotation
                End Site
                {
                  OFFSET 0 0 0
                }
              }
            }
          }
        }
      }
      JOINT ShoulderRight
      {
        OFFSET 13.233783 -2.041389 7.622799
        CHANNELS 3 Zrotation Xrotation Yrotation
        JOINT ElbowRight
        {
          OFFSET 4.021509 -21.781756 3.112399
          CHANNELS 3 Zrotation Xrotation Yrotation
          JOINT WristRight
          {
            OFFSET 10.979883 -10.167274 -16.124646
            CHANNELS 3 Zrotation Xrotation Yrotation
            JOINT HandRight
            {
              OFFSET 4.091069 -2.546173 -5.286409
              CHANNELS 3 Zrotation Xrotation Yrotation
              JOINT HandTipRight
              {
                OFFSET 3.744015 -0.533492 -2.888083
                CHANNELS 3 Zrotation Xrotation Yrotation
                End Site
                {
                  OFFSET 0 0 0
                }
              }
              JOINT ThumbRight
              {
                OFFSET -2.706610 -2.461413 -1.839257
                CHANNELS 3 Zrotation Xrotation Yrotation
                End Site
                {
                  OFFSET 0 0 0
                }
              }
            }
          }
        }
      }
    }
  }
  JOINT HipLeft
  {
    OFFSET -6.085090 1.497216 -6.404846
    CHANNELS 3 Zrotation Xrotation Yrotation
    JOINT KneeLeft
    {
      OFFSET 7.543244 5.933555 -31.502510
      CHANNELS 3 Zrotation Xrotation Yrotation
      JOINT AnkleLeft
      {
        OFFSET -1.060746 -35.739748 -0.397822
        CHANNELS 3 Zrotation Xrotation Yrotation
        JOINT FootLeft
        {
          OFFSET 5.704955 -2.617035 -11.788540
          CHANNELS 3 Zrotation Xrotation Yrotation
          End Site
          {
            OFFSET 0 0 0
          }
        }
      }
    }
  }
  JOINT HipRight
  {
    OFFSET 7.165373 1.121638 0.106209
    CHANNELS 3 Zrotation Xrotation Yrotation
    JOINT KneeRight
    {
      OFFSET 24.083535 1.822310 -15.632844
      CHANNELS 3 Zrotation Xrotation Yrotation
      JOINT AnkleRight
      {
        OFFSET -5.193028 -31.935620 -6.927286
        CHANNELS 3 Zrotation Xrotation Yrotation
        JOINT FootRight
        {
          OFFSET 5.470075 -2.655130 -11.843972
          CHANNELS 3 Zrotation Xrotation Yrotation
          End Site
          {
            OFFSET 0 0 0
          }
        }
      }
    }
  }
}
MOTION
Frames: 12
Frame Time: 0.033333
-64.523895 31.617840 370.892686 2.224541 -6.312261 -22.756845 -0.281509 -0.675003 23.043878 0.214433 0.140998 0.132335 19.517043 4.449918 0.763751 0.000000 0.000000 0.000000 1.623664 4.737141 -1.279145 3.012047 2.900985 -6.919860 2.653586 25.020909 10.141052 2.818768 -12.677552 -8.028228 0.000000 0.000000 0.000000 0.000000 0.000000 0.000000 2.944487 21.907508 2.154793 -26.573007 -4.768940 37.649657 -10.138640 -10.412686 3.358285 1.578030 -10.055612 6.439309 0.000000 0.000000 0.000000 0.000000 0.000000 0.000000 -5.532491 10.584270 22.801858 -0.643178 -4.931230 0.379606 -2.825344 -1.652984 8.493973 0.000000 0.000000 0.000000 -5.111829 3.557815 26.736665 -0.192221 -1.773685 -2.918172 -1.011294 1.865389 7.863935 0.000000 0.000000 0.000000
-64.352841 31.606851 370.816104 2.536593 -6.285315 -23.214087 -0.431445 -0.782742 23.533018 0.267134 0.146140 0.138634 18.718277 4.087872 0.918783 0.000000 0.000000 0.000000 1.930403 4.336470 -1.395013 3.421431 5.475163 -6.668273 1.077326 19.960495 9.948667 5.691347 -10.982130 -9.049515 0.000000 0.000000 0.000000 0.000000 0.000000 0.000000 2.510207 22.252901 2.231528 -26.461972 -4.970717 37.786911 -10.746945 -10.968989 2.231881 2.856453 -9.472919 7.886291 0.000000 0.000000 0.000000 0.000000 0.000000 0.000000 -5.930516 10.720434 23.472896 -0.809810 -5.270384 0.189451 -2.779001 -1.597163 8.578973 0.000000 0.000000 0.000000 -5.401254 3.372792 27.335885 -0.273637 -1.805291 -3.023019 -0.952536 1.938969 7.926007 0.000000 0.000000 0.000000
-64.237798 31.577802 370.781541 2.731468 -6.331040 -23.630556 -0.517151 -0.815756 23.970551 0.283187 0.106010 0.144908 18.166911 3.779242 1.056511 0.000000 0.000000 0.000000 2.796637 4.481952 -1.862208 2.826144 6.359960 -6.232444 1.277891 19.256849 9.302295 5.823877 -9.733273 -8.146522 0.000000 0.000000 0.000000 0.000000 0.000000 0.000000 2.444267 22.258896 2.206448 -26.547386 -4.738346 38.048747 -10.437732 -11.123166 1.088100 3.539103 -9.102287 8.760422 0.000000 0.000000 0.000000 0.000000 0.000000 0.000000 -6.261735 11.003454 24.039686 -1.474988 -6.252077 0.033723 -2.209659 -0.971777 8.484015 0.000000 0.000000 0.000000 -5.598490 3.316144 27.897840 -0.378709 -1.827999 -3.135475 -0.862045 1.960151 7.805255 0.000000 0.000000 0.000000
-64.185741 31.543759 370.799153 2.812264 -6.427459 -23.887403 -0.557812 -0.761205 24.236948 0.275922 0.029791 0.150597 17.721232 3.101486 1.365983 0.000000 0.000000 0.000000 3.389760 4.845797 -2.238178 2.986060 7.675224 -6.030655 0.230374 17.785753 10.036758 8.549505 -9.965153 -9.941445 0.000000 0.000000 0.000000 0.000000 0.000000 0.000000 2.670374 22.046063 2.116341 -26.828805 -4.968357 37.799792 -9.458179 -10.339486 2.427256 6.828306 -8.512881 7.026225 0.000000 0.000000 0.000000 0.000000 0.000000 0.000000 -6.493419 11.382834 24.349459 -1.564337 -6.600175 0.002928 -2.189047 -0.997854 8.327454 0.000000 0.000000 0.000000 -5.716958 3.336782 28.334382 -0.483200 -1.864592 -3.274412 -0.745207 1.994691 7.614635 0.000000 0.000000 0.000000
-64.187691 31.494040 370.855891 2.768354 -6.628942 -24.013704 -0.510737 -0.631322 24.362640 0.236826 -0.075101 0.156784 17.625012 3.150543 1.359304 0.000000 0.000000 0.000000 3.703018 5.363873 -2.493858 3.513887 8.817989 -6.059136 -0.616574 15.330720 9.809793 9.012547 -8.583349 -9.548746 0.000000 0.000000 0.000000 0.000000 0.000000 0.000000 3.175040 21.811417 1.973208 -27.338674 -5.259227 37.435587 -8.001057 -9.123394 4.384859 8.203995 -8.726349 6.692783 0.000000 0.000000 0.000000 0.000000 0.000000 0.000000 -6.614151 11.820685 24.510306 -1.625547 -6.848629 -0.008446 -2.214693 -1.063295 8.324136 0.000000 0.000000 0.000000 -5.749416 3.531493 28.636465 -0.595560 -1.893854 -3.412461 -0.681030 1.972469 7.582397 0.000000 0.000000 0.000000
-64.239357 31.444880 370.927514 2.639669 -6.854131 -24.233490 -0.349831 -0.469402 24.572240 0.220817 -0.180808 0.165300 17.656939 3.848610 1.063013 0.000000 0.000000 0.000000 4.082656 6.149963 -2.878987 3.502977 9.017308 -5.865278 -1.216406 13.661126 9.686740 11.223780 -7.960170 -10.561753 0.000000 0.000000 0.000000 0.000000 0.000000 0.000000 3.734241 21.612959 1.812050 -27.954025 -5.751995 36.853841 -5.819483 -7.356045 6.657128 7.541097 -9.593666 6.626803 0.000000 0.000000 0.000000 0.000000 0.000000 0.000000 -6.692111 12.275741 24.697856 -1.664578 -7.074335 0.047393 -2.239166 -1.143922 8.283813 0.000000 0.000000 0.000000 -5.729840 3.761645 29.013104 -0.654081 -1.886207 -3.548696 -0.655247 1.900913 7.528005 0.000000 0.000000 0.000000
-64.346698 31.391298 371.005290 2.406271 -7.099625 -24.376445 -0.100444 -0.262204 24.691284 0.193104 -0.261759 0.172738 17.883053 4.925792 0.590757 0.000000 0.000000 0.000000 3.677500 6.569476 -2.785845 4.669613 9.578588 -6.490917 -2.140820 12.111149 9.879822 11.648428 -7.506527 -10.672282 0.000000 0.000000 0.000000 0.000000 0.000000 0.000000 4.258253 21.236403 1.635795 -28.272727 -5.564537 36.446547 -4.366962 -6.172644 7.850266 6.595016 -10.149551 7.161711 0.000000 0.000000 0.000000 0.000000 0.000000 0.000000 -6.661916 12.727756 24.733162 -1.669790 -7.231807 0.173183 -2.288813 -1.234812 8.350373 0.000000 0.000000 0.000000 -5.613825 4.084035 29.231742 -0.676591 -1.840987 -3.629692 -0.702679 1.760340 7.602705 0.000000 0.000000 0.000000
-64.373100 31.354651 371.053099 2.354645 -7.257389 -24.544282 0.038813 -0.133515 24.852405 0.204211 -0.264576 0.179728 18.040982 5.781925 0.200238 0.000000 0.000000 0.000000 2.910972 6.636180 -2.487489 5.474505 9.111134 -7.167946 -2.200483 13.613858 10.543618 10.124489 -7.139722 -9.496088 0.000000 0.000000 0.000000 0.000000 0.000000 0.000000 4.693571 20.761691 1.483333 -28.595372 -5.312906 36.087661 -2.840751 -5.205439 8.057926 6.864745 -10.248940 5.887376 0.000000 0.000000 0.000000 0.000000 0.000000 0.000000 -6.715628 12.871864 24.961717 -1.680354 -7.227394 0.127152 -2.332018 -1.275608 8.487407 0.000000 0.000000 0.000000 -5.635732 4.233091 29.512553 -0.638264 -1.786966 -3.751598 -0.794644 1.665836 7.761109 0.000000 0.000000 0.000000
-64.388543 31.335389 371.060675 2.309442 -7.333717 -24.668844 0.140888 -0.055044 24.970257 0.168819 -0.210602 0.181041 18.903119 6.506203 -0.151189 0.000000 0.000000 0.000000 1.959148 6.244400 -1.953099 6.732889 9.333498 -8.073949 -2.496757 13.618654 10.726113 9.411042 -7.248817 -9.091055 0.000000 0.000000 0.000000 0.000000 0.000000 0.000000 5.123253 20.175606 1.361103 -28.659634 -4.871606 35.614354 -1.121503 -4.216637 7.822562 5.191594 -10.605225 6.691732 0.000000 0.000000 0.000000 0.000000 0.000000 0.000000 -6.698905 12.814709 25.160054 -1.666566 -7.091554 0.055558 -2.356937 -1.290872 8.583688 0.000000 0.000000 0.000000 -5.617404 4.336984 29.671443 -0.571396 -1.767028 -3.811161 -0.918027 1.605697 7.889874 0.000000 0.000000 0.000000
-64.395877 31.319864 371.052207 2.247966 -7.377811 -24.732271 0.117599 -0.028292 25.028122 0.073991 -0.138007 0.173427 19.455983 6.552650 -0.181473 0.000000 0.000000 0.000000 1.319928 5.519922 -1.396029 7.878484 9.718097 -9.078611 -3.027520 13.317412 11.087754 8.579174 -7.254313 -8.709029 0.000000 0.000000 0.000000 0.000000 0.000000 0.000000 5.516216 19.918911 1.325112 -28.440564 -4.681556 34.901579 0.843180 -2.944588 7.807027 2.649812 -11.325215 8.068027 0.000000 0.000000 0.000000 0.000000 0.000000 0.000000 -6.656303 12.797750 25.249830 -1.655351 -7.014060 0.027795 -2.385561 -1.302622 8.706370 0.000000 0.000000 0.000000 -5.575825 4.410974 29.746965 -0.514047 -1.771740 -3.842176 -1.020762 1.584699 8.033536 0.000000 0.000000 0.000000
-64.392985 31.320736 371.029570 2.285684 -7.388894 -24.781790 0.235121 -0.053957 25.081073 0.078686 -0.105783 0.178960 19.280331 6.716603 -0.257534 0.000000 0.000000 0.000000 0.501716 4.684324 -0.857026 8.957405 10.593066 -10.029447 -3.597627 11.623792 10.831433 9.986233 -6.302909 -9.179774 0.000000 0.000000 0.000000 0.000000 0.000000 0.000000 5.607025 20.323328 1.333458 -28.217293 -4.542152 34.178576 0.212115 -3.345308 7.533794 3.155025 -10.843713 9.508954 0.000000 0.000000 0.000000 0.000000 0.000000 0.000000 -6.662803 12.626542 25.372625 -0.821256 -7.134580 0.052673 -3.191001 -1.018541 8.709043 0.000000 0.000000 0.000000 -5.599680 4.437264 29.773596 -0.490845 -1.806046 -3.827920 -1.078523 1.587511 8.036198 0.000000 0.000000 0.000000
-64.379924 31.327359 370.998187 2.410408 -7.375982 -24.743661 0.459701 -0.105824 25.054235 0.176378 -0.078800 0.194021 18.161229 6.766045 -0.265575 0.000000 0.000000 0.000000 -0.547645 3.706845 -0.296565 10.138870 11.973065 -10.995541 -3.903118 9.835833 10.163339 12.227750 -6.542392 -10.616761 0.000000 0.000000 0.000000 0.000000 0.000000 0.000000 5.243835 20.989843 1.375141 -27.872702 -4.549311 33.525814 -1.064549 -4.530339 6.275082 3.381018 -9.996661 12.661392 0.000000 0.000000 0.000000 0.000000 0.000000 0.000000 -6.687224 12.308839 25.485488 -0.694439 -6.993225 -0.088501 -3.277756 -0.880361 8.662434 0.000000 0.000000 0.000000 -5.681001 4.428563 29.669531 -0.505599 -1.836454 -3.761241 -1.094412 1.589823 7.994335 0.000000 0.000000 0.000000
